<?xml version="1.0" encoding="UTF-8" standalone="no"?><!DOCTYPE svg PUBLIC "-//W3C//DTD SVG 1.1//EN" "http://www.w3.org/Graphics/SVG/1.1/DTD/svg11.dtd"><svg width="100%" height="100%" viewBox="0 0 2134 2134" version="1.1" xmlns="http://www.w3.org/2000/svg" xmlns:xlink="http://www.w3.org/1999/xlink" xml:space="preserve" xmlns:serif="http://www.serif.com/" style="fill-rule:evenodd;clip-rule:evenodd;stroke-linejoin:round;stroke-miterlimit:2;"><g><clipPath id="_clip1"><path d="M2133.333,250l0,1633.333c0,137.979 -112.021,250 -250,250l-1633.333,0c-137.979,0 -250,-112.021 -250,-250l0,-1633.333c0,-137.979 112.021,-250 250,-250l1633.333,0c137.979,0 250,112.021 250,250"/></clipPath><g clip-path="url(#_clip1)"><path d="M1066.667,242.888c-196.81,0.535 -365.308,146.586 -393.786,341.325c-28.749,-6.507 -58.135,-9.786 -87.611,-9.779c-217.817,1.006 -396.744,179.933 -397.75,397.75c-0,146.15 80.607,281.068 209.314,350.311c-25.356,53.292 -38.494,111.58 -38.454,170.597c1.077,217.79 179.96,396.673 397.75,397.75c120.779,0 235.082,-54.971 310.536,-149.189c75.459,94.022 189.714,148.814 310.272,148.793c217.79,-1.077 396.673,-179.96 397.75,-397.75c0,-58.804 -13.082,-116.946 -38.321,-170.2c128.843,-69.186 209.537,-204.067 209.579,-350.311c-1.077,-217.718 -179.9,-396.541 -397.618,-397.618l-0.132,-0c-30.129,0 -59.332,3.215 -87.611,9.646c-28.485,-194.787 -197.059,-340.855 -393.918,-341.325" style="fill:#4c2977;"/><path d="M1066.667,1376.674c169.143,0 264.286,-95.143 264.286,-264.286c0,-169.143 -95.143,-264.286 -264.286,-264.286c-169.143,0 -264.286,95.143 -264.286,264.286c0,169.143 95.143,264.286 264.286,264.286" style="fill:#d9c2ff;fill-rule:nonzero;"/></g></g></svg>